<?xml version="1.0" encoding="UTF-8" ?>
<!DOCTYPE svg PUBLIC "-//W3C//DTD SVG 1.1//EN" "http://www.w3.org/Graphics/SVG/1.1/DTD/svg11.dtd">
<svg width="612pt" height="612pt" viewBox="0 0 612 612" version="1.1" xmlns="http://www.w3.org/2000/svg">
<g id="#ffffffff">
</g>
<g id="#020202ff">
<path fill="#020202" opacity="1.00" d=" M 196.30 68.98 C 196.80 65.96 200.01 63.99 202.95 64.32 C 236.65 64.92 270.34 65.58 304.04 66.21 C 307.41 66.10 310.71 68.89 310.52 72.40 C 310.61 99.25 310.55 126.10 310.54 152.95 C 313.86 154.93 316.16 158.10 319.06 160.56 C 322.89 161.22 326.43 159.22 330.03 158.32 C 333.07 158.48 335.43 160.83 338.16 161.98 C 339.56 164.06 340.01 166.46 339.76 168.94 C 343.33 169.20 347.77 167.55 350.54 170.59 C 353.02 173.60 357.05 169.31 359.96 171.25 C 361.19 171.98 362.17 173.04 363.22 174.01 C 367.97 172.26 373.16 172.17 378.15 172.48 C 382.34 173.82 382.02 179.44 385.27 181.88 C 388.22 184.85 390.56 178.72 394.01 179.57 C 398.07 180.75 401.82 182.81 405.84 184.13 C 407.75 183.01 409.61 180.73 412.07 181.45 C 413.63 181.65 414.28 183.32 415.27 184.35 C 419.49 180.69 425.52 177.08 431.13 179.94 C 434.71 182.50 438.32 185.03 442.14 187.26 C 447.20 183.87 453.01 182.03 458.47 179.43 C 462.47 177.68 466.26 180.73 470.13 181.35 C 475.25 180.85 478.66 175.59 483.96 175.81 C 488.22 175.76 492.20 177.88 495.22 180.77 C 499.33 185.06 505.16 187.29 510.95 188.10 C 514.72 188.76 518.06 190.95 521.90 191.33 C 524.70 191.82 528.08 191.63 530.08 194.05 C 531.65 195.53 531.82 197.79 531.99 199.82 C 533.25 220.10 534.50 240.39 535.88 260.66 C 535.85 262.68 537.96 263.52 539.10 264.87 C 544.07 269.92 545.69 277.10 547.27 283.75 C 549.65 287.25 553.72 289.72 554.70 294.11 C 555.46 298.12 557.39 301.80 558.06 305.83 C 558.10 310.32 557.10 314.76 556.57 319.21 C 556.21 323.05 553.23 325.99 552.91 329.85 C 552.79 331.65 551.66 333.06 550.51 334.35 C 552.05 339.87 555.01 345.15 554.42 351.08 C 554.27 355.84 550.06 358.81 548.44 362.99 C 548.96 363.48 549.99 364.46 550.51 364.96 C 550.44 366.55 550.72 368.38 549.14 369.37 C 545.68 370.72 541.86 370.71 538.40 372.08 C 532.98 374.10 527.21 375.28 522.07 377.99 C 518.20 382.19 516.15 387.97 511.41 391.44 C 505.89 395.42 500.75 399.89 495.90 404.63 C 490.61 405.61 485.27 406.30 480.13 407.99 C 481.97 413.17 482.86 419.17 480.19 424.25 C 477.21 430.62 470.27 435.83 462.98 434.49 C 458.44 433.88 454.55 429.71 455.10 424.98 C 455.78 416.69 461.98 409.65 469.17 405.95 C 468.09 405.41 467.03 404.86 465.96 404.32 C 460.96 410.73 454.71 417.66 446.00 418.12 C 440.75 418.31 436.53 413.83 436.26 408.71 C 432.09 412.88 427.98 417.91 422.05 419.44 C 417.09 420.63 412.45 417.10 410.80 412.59 C 406.31 416.80 400.61 421.06 394.07 420.10 C 389.49 419.60 386.44 415.77 384.26 412.08 C 380.68 415.29 377.01 418.45 372.86 420.92 C 370.78 420.07 368.80 418.45 369.76 415.97 C 373.28 412.63 377.11 409.57 381.14 406.86 C 381.33 406.42 381.73 405.54 381.93 405.11 C 380.74 397.66 378.97 390.19 379.37 382.59 C 381.40 381.96 384.40 380.94 385.28 383.69 C 386.26 389.38 386.47 395.20 387.75 400.85 C 393.21 396.15 398.32 391.04 403.86 386.43 C 406.42 386.86 408.88 389.22 407.05 391.80 C 401.73 397.28 395.92 402.32 390.08 407.25 C 390.37 410.33 392.28 414.15 395.95 413.68 C 402.01 413.25 405.92 407.82 410.51 404.50 C 413.30 397.30 416.73 389.80 423.32 385.30 C 427.98 381.90 434.98 381.74 439.46 385.55 C 441.47 387.21 442.37 389.74 443.27 392.11 C 444.44 392.62 445.58 393.18 446.74 393.75 C 446.99 399.91 441.09 405.75 444.27 411.89 C 451.91 411.86 457.18 405.21 461.43 399.67 C 458.27 391.92 463.70 382.88 471.08 379.99 C 475.68 378.13 481.46 381.01 482.31 386.00 C 483.41 392.28 478.36 397.57 473.38 400.55 C 474.24 401.36 475.05 402.98 476.51 402.39 C 481.29 400.84 486.16 399.58 491.16 398.95 C 493.75 398.85 495.18 396.44 497.01 394.96 C 501.88 390.15 508.55 387.16 512.16 381.14 C 514.00 378.42 515.45 375.33 518.00 373.18 C 521.27 370.98 525.13 369.91 528.82 368.64 C 533.24 367.28 537.53 365.49 542.07 364.55 C 542.42 362.49 542.60 360.35 543.51 358.43 C 544.71 355.87 547.10 354.05 548.13 351.39 C 548.96 345.54 545.04 340.51 544.30 334.91 C 543.87 332.62 545.26 330.64 546.54 328.91 C 547.17 325.79 548.33 322.84 549.86 320.06 C 551.03 316.46 551.07 312.59 551.68 308.88 C 552.37 304.91 549.81 301.45 549.13 297.68 C 548.59 291.83 541.47 289.71 540.74 283.94 C 539.39 277.52 537.56 269.35 530.70 266.76 C 529.10 262.72 529.56 258.27 529.20 254.03 C 527.86 235.38 526.89 216.70 525.50 198.06 C 520.58 197.83 515.83 196.55 511.29 194.68 C 504.09 193.29 496.42 191.25 491.27 185.66 C 488.77 182.94 484.63 180.95 481.10 182.92 C 477.62 185.53 473.49 187.83 469.00 187.56 C 466.30 187.16 463.90 185.72 461.23 185.21 C 458.35 186.12 455.79 187.83 452.88 188.68 C 448.54 190.08 444.90 194.49 439.96 193.26 C 435.62 191.04 431.80 187.96 427.74 185.30 C 422.91 184.62 420.15 189.61 416.11 191.22 C 413.78 191.82 411.88 190.22 410.03 189.13 C 407.80 190.16 405.57 191.74 402.98 191.27 C 401.88 190.65 400.98 189.75 400.07 188.91 C 398.07 187.98 396.08 187.01 394.11 186.04 C 391.31 188.17 387.68 190.02 384.14 188.56 C 380.10 186.65 377.39 182.71 375.99 178.57 C 372.14 178.60 368.25 178.67 364.70 180.31 C 361.72 181.84 359.32 179.20 357.27 177.45 C 354.95 177.53 352.62 178.38 350.30 177.80 C 347.67 177.44 345.88 174.65 343.07 175.24 C 340.20 175.19 336.75 175.52 334.57 173.29 C 332.97 171.40 333.37 168.82 333.46 166.55 C 332.39 166.04 331.31 165.52 330.24 165.00 C 325.51 166.36 319.91 168.42 315.33 165.60 C 313.35 164.57 312.16 162.64 310.98 160.83 C 309.02 159.56 306.43 159.74 304.62 158.22 C 304.04 155.52 304.35 152.74 304.30 150.00 C 304.31 124.14 304.31 98.28 304.30 72.43 C 270.29 71.84 236.28 71.17 202.27 70.58 C 199.89 135.73 197.51 200.88 195.06 266.03 C 195.32 269.82 191.88 273.18 188.05 272.54 C 145.88 270.60 103.71 268.56 61.54 266.60 C 61.83 267.96 62.12 269.32 62.40 270.69 C 66.04 271.93 69.62 273.89 71.81 277.15 C 73.25 279.57 73.32 282.48 73.68 285.20 C 77.40 287.87 81.43 290.15 84.69 293.42 C 87.71 296.40 91.94 297.97 94.47 301.47 C 96.35 304.24 97.18 307.88 100.27 309.69 C 106.38 313.80 111.12 319.50 116.70 324.24 C 119.35 326.52 120.94 329.71 121.70 333.08 C 122.43 336.97 126.14 339.21 127.49 342.82 C 130.71 351.16 131.20 360.22 133.43 368.82 C 136.30 370.90 138.43 373.76 140.85 376.31 C 146.14 380.34 152.23 383.19 157.50 387.25 C 161.79 389.92 167.23 390.47 170.99 394.07 C 174.23 397.18 178.03 399.90 182.58 400.63 C 184.45 396.26 189.19 394.61 192.08 391.15 C 194.29 387.16 195.30 382.60 197.79 378.74 C 199.61 376.12 198.86 372.72 200.11 369.92 C 201.01 368.04 203.32 368.06 205.06 367.60 C 209.26 367.06 211.72 362.65 215.94 362.19 C 219.41 361.69 222.19 364.24 225.42 364.92 C 229.07 365.86 233.01 365.07 236.54 366.58 C 239.86 367.99 243.50 367.75 247.03 367.77 C 249.96 367.80 253.65 367.74 255.46 370.51 C 260.26 377.33 267.08 382.31 273.27 387.78 C 274.78 388.76 274.21 390.61 274.34 392.12 C 273.16 392.57 271.97 393.02 270.79 393.47 C 263.32 387.87 255.98 381.80 250.41 374.25 C 244.88 374.00 239.19 374.38 233.92 372.40 C 228.59 371.37 222.89 371.67 218.03 368.84 C 217.60 368.70 216.75 368.43 216.33 368.29 C 213.20 370.85 209.86 373.54 205.67 373.95 C 205.42 376.59 204.92 379.26 203.40 381.51 C 201.39 384.71 200.27 388.33 198.85 391.81 C 197.18 396.00 193.35 398.71 189.80 401.23 C 188.42 404.32 185.57 406.94 181.99 406.80 C 176.17 406.25 171.16 402.77 167.00 398.90 C 162.80 395.19 156.64 395.10 152.44 391.38 C 146.27 386.48 138.19 383.93 133.40 377.43 C 131.65 375.29 129.17 373.79 127.69 371.43 C 125.08 362.79 124.95 353.53 121.64 345.07 C 120.78 343.12 119.16 341.67 117.92 339.98 C 115.94 337.54 115.79 334.25 114.51 331.48 C 113.57 329.47 111.73 328.16 110.10 326.75 C 106.33 323.59 103.23 319.68 99.24 316.77 C 96.68 314.67 93.53 313.01 91.98 309.95 C 90.57 307.48 89.68 304.47 87.05 302.97 C 84.02 301.05 81.22 298.82 78.60 296.38 C 75.16 293.16 70.07 291.64 67.80 287.26 C 67.14 284.87 66.99 282.39 66.50 279.97 C 64.02 278.15 61.18 276.97 58.50 275.53 C 55.44 273.86 56.06 269.83 55.11 266.96 C 53.73 263.73 56.39 259.84 59.94 260.29 C 102.88 262.27 145.81 264.25 188.74 266.36 C 191.22 204.23 193.37 142.09 195.71 79.95 C 195.89 76.29 195.62 72.60 196.30 68.98 M 466.75 396.85 C 470.18 395.32 473.12 392.95 475.63 390.19 C 475.72 388.85 475.79 387.52 475.82 386.19 C 470.21 385.47 466.57 391.92 466.75 396.85 M 424.09 392.94 C 420.40 397.88 416.92 403.46 416.56 409.78 C 416.83 410.42 417.37 411.69 417.64 412.33 C 418.96 412.95 420.54 414.04 421.89 412.76 C 427.50 409.09 431.90 403.90 436.66 399.24 C 436.77 396.74 436.65 394.24 436.61 391.75 C 433.30 387.49 427.04 389.19 424.09 392.94 M 465.01 417.01 C 463.09 420.08 461.36 423.43 461.44 427.17 C 463.45 427.99 465.71 428.79 467.84 427.76 C 474.47 425.20 477.40 416.71 474.11 410.45 C 470.83 412.27 467.67 414.34 465.01 417.01 Z" />
<path fill="#020202" opacity="1.00" d=" M 318.86 354.58 C 320.07 354.53 321.28 354.48 322.50 354.44 C 324.57 356.85 323.36 359.71 322.36 362.30 C 328.85 363.09 335.46 363.87 341.99 362.89 C 345.49 362.40 348.78 361.07 352.18 360.16 C 354.24 361.68 354.91 363.84 353.58 366.10 C 342.91 370.66 331.04 370.09 319.83 368.27 C 314.79 380.99 308.98 393.60 306.63 407.16 C 305.61 410.98 308.09 414.92 312.04 415.46 C 318.96 416.31 325.78 413.29 331.23 409.24 C 332.61 407.64 334.12 406.06 334.79 404.01 C 337.40 396.68 341.82 389.76 348.20 385.17 C 353.68 381.33 362.69 382.70 365.42 389.23 C 367.87 396.42 361.46 402.87 355.17 405.10 C 350.53 406.99 345.56 406.06 340.81 405.28 C 340.68 407.60 340.87 409.93 341.63 412.15 C 346.48 414.54 351.92 412.77 356.56 410.75 C 362.55 407.90 366.90 402.72 371.72 398.33 C 374.26 397.88 377.19 399.88 376.07 402.72 C 369.02 411.67 358.73 419.10 347.05 419.84 C 342.38 420.24 337.89 417.87 335.25 414.08 C 328.97 419.11 320.99 422.22 312.88 421.87 C 306.95 421.49 300.87 417.18 300.19 410.98 C 299.58 402.92 303.17 395.43 305.02 387.77 C 300.35 395.53 293.62 401.93 285.62 406.18 C 287.27 410.41 288.67 414.84 291.44 418.52 C 293.60 421.72 296.98 424.27 297.78 428.24 C 298.60 430.96 298.07 434.02 299.31 436.62 C 301.70 439.56 305.09 441.52 307.66 444.32 C 311.69 448.16 313.43 453.71 317.27 457.73 C 320.38 461.43 324.95 463.37 328.54 466.50 C 331.22 469.78 330.58 474.30 330.20 478.21 C 331.40 480.49 333.38 482.45 333.66 485.14 C 333.84 487.76 333.13 490.34 333.24 492.96 C 337.38 497.26 343.06 501.37 343.47 507.85 C 343.60 511.21 345.01 514.29 346.59 517.21 C 348.84 517.29 351.25 516.78 353.37 517.79 C 356.33 519.57 358.45 522.90 362.13 523.32 C 369.70 524.38 376.46 528.15 382.85 532.10 C 389.79 532.83 397.18 531.47 403.81 534.19 C 407.01 535.60 409.29 538.37 411.79 540.72 C 414.08 538.15 416.92 536.11 420.28 535.23 C 418.32 523.50 414.05 512.34 411.15 500.84 C 409.21 492.96 411.83 484.98 412.15 477.07 C 412.34 469.67 417.55 463.90 421.06 457.79 C 423.27 454.67 422.90 450.47 425.23 447.41 C 429.32 441.80 435.01 437.62 440.81 433.93 C 442.15 432.78 443.92 433.44 445.51 433.47 C 445.74 435.07 447.20 437.08 445.46 438.32 C 440.36 441.76 435.05 445.13 431.13 449.96 C 429.02 452.43 429.22 455.89 427.71 458.66 C 424.49 465.34 418.27 471.02 418.32 478.90 C 417.95 486.08 415.43 493.38 417.49 500.51 C 420.26 510.32 423.45 520.02 425.68 529.98 C 426.21 532.60 426.88 535.31 426.35 537.99 C 425.53 540.50 422.76 540.92 420.66 541.80 C 417.16 542.79 416.20 546.87 413.06 548.44 C 406.51 547.12 404.08 538.70 397.02 538.91 C 391.65 538.17 386.15 539.13 380.83 538.11 C 376.61 536.09 372.94 532.99 368.46 531.45 C 364.13 529.51 358.93 529.96 355.03 527.03 C 353.46 525.99 352.24 524.44 350.55 523.62 C 347.84 523.28 344.61 523.88 342.54 521.66 C 338.93 517.97 337.68 512.64 337.01 507.68 C 335.73 502.12 329.75 499.66 326.95 495.08 C 326.52 491.96 327.32 488.85 327.54 485.75 C 326.19 483.65 324.30 481.77 323.76 479.27 C 323.63 476.50 324.91 473.65 323.93 470.95 C 320.74 468.14 316.74 466.33 313.81 463.18 C 308.84 458.63 306.83 451.76 301.74 447.33 C 299.03 444.80 295.84 442.72 293.74 439.62 C 291.35 435.27 293.27 429.40 289.26 425.81 C 283.86 420.37 281.56 412.91 278.76 405.98 C 277.89 404.64 279.09 403.29 279.44 402.01 C 282.04 400.88 284.45 399.37 286.85 397.86 C 296.82 389.20 304.13 377.96 311.17 366.90 C 302.37 365.87 293.25 365.75 284.92 369.18 C 284.28 368.94 283.00 368.47 282.36 368.23 C 282.20 366.71 280.90 364.73 282.73 363.77 C 292.61 358.94 304.12 359.60 314.69 361.29 C 316.15 359.10 317.48 356.82 318.86 354.58 M 353.59 389.72 C 349.36 391.62 346.57 395.59 344.06 399.33 C 348.96 400.61 354.17 399.36 357.94 396.00 C 358.51 394.96 359.07 393.92 359.64 392.88 C 359.54 392.35 359.33 391.29 359.23 390.76 C 357.46 390.06 355.54 388.88 353.59 389.72 Z" />
</g>
</svg>
